<svg xmlns="http://www.w3.org/2000/svg" width="188.39" height="16" viewBox="0 0 188.39 16"><path d="M15.084,13.4a8.81,8.81,0,0,1-6.622,2.581C2.891,15.986,0,12.77,0,8.092S3.011,0,8.484,0A8.763,8.763,0,0,1,15.06,2.527L12.968,4.548a5.253,5.253,0,0,0-4.464-2c-3.882,0-5.531,2.408-5.531,5.545,0,3.061,1.549,5.354,5.51,5.354a5.322,5.322,0,0,0,4.505-2.021ZM27.94,15.983c-5.328,0-8.126-3.235-8.126-7.894S22.609,0,27.94,0c5.366,0,8.144,3.407,8.144,8.088C36.08,12.749,33.2,15.983,27.94,15.983Zm.019-13.439c-3.659,0-5.169,2.368-5.169,5.545,0,3.083,1.509,5.354,5.169,5.354,3.681,0,5.148-2.273,5.148-5.354s-1.472-5.545-5.153-5.545ZM46.788,15.784H40.03V.205h6.656c6.8,0,7.984,4.213,7.984,7.789C54.671,11.589,53.526,15.784,46.788,15.784Zm-.3-13.041H42.665l.282.269v9.963l-.282.269h3.921c4.4,0,5.108-2.309,5.108-5.252C51.695,5.07,50.967,2.743,46.486,2.743ZM72.632,15.784H59.659V.205H72.632V2.743H62.295l.282.269V6.456l-.282.269h9.371V9.264H62.295l.282.269v3.443l-.282.269H72.632Zm20.513,0H89.866L87.7,11.668c-.685-1.327-1.73-1.941-3.7-1.941H80.558L80.84,10v5.789H77.922V.205h7.642c3.157,0,5.972,1.538,5.972,4.788a4.478,4.478,0,0,1-2.877,3.866V8.9a3.727,3.727,0,0,1,1.713,1.654ZM85.563,2.743H80.557l.282.269v3.9l-.282.288h4.786c2.169,0,3.217-.981,3.217-2.212C88.56,3.377,87.413,2.743,85.563,2.743ZM113.51,15.784h-3.2l-1.69-3.462.16-.25h-8.449l.16.25L98.8,15.784h-3.2L103.21.205h2.7Zm-6.095-6.251-.282-.25L105,4.917l-.4-1.288h-.04L104.1,4.917l-2.133,4.365-.282.25Zm18.172.634H120.3l.282.269v5.348h-2.917V.205h7.944c3.721,0,5.872,2.077,5.872,4.981C131.48,7.975,129.349,10.167,125.588,10.167Zm.021-7.421H120.3l.282.269V7.363l-.282.269h5.29c2.055,0,2.917-1.018,2.917-2.443,0-1.5-.862-2.446-2.9-2.446Zm18.61,7.421H138.93l.282.269v5.348h-2.917V.205h7.944c3.721,0,5.872,2.077,5.872,4.981C150.111,7.975,147.975,10.167,144.218,10.167Zm.019-7.421H138.93l.282.269V7.363l-.282.269h5.289c2.055,0,2.917-1.018,2.917-2.443,0-1.5-.865-2.446-2.9-2.446Zm22.69,13.039H153.955V.205h12.972V2.743H156.59l.282.269V6.456l-.282.269h9.371V9.264H156.59l.282.269v3.443l-.282.269h10.337Zm21.459,0h-3.279l-2.169-4.116c-.685-1.327-1.73-1.941-3.7-1.941H175.8l.282.269v5.789h-2.919V.205H180.8c3.157,0,5.972,1.538,5.972,4.788A4.478,4.478,0,0,1,183.9,8.859V8.9a3.727,3.727,0,0,1,1.713,1.654ZM180.8,2.743h-5l.282.269v3.9l-.282.288h4.786c2.169,0,3.217-.981,3.217-2.212C183.8,3.377,182.65,2.743,180.8,2.743Z" transform="translate(0.004 0.006)"/></svg>